<?xml version="1.0" standalone="no"?>
<!DOCTYPE svg PUBLIC "-//W3C//DTD SVG 20010904//EN"
 "http://www.w3.org/TR/2001/REC-SVG-20010904/DTD/svg10.dtd">
<svg version="1.0" xmlns="http://www.w3.org/2000/svg"
 width="1600.000000pt" height="1600.000000pt" viewBox="0 0 1600.000000 1600.000000"
 preserveAspectRatio="xMidYMid meet">
<metadata>
Created by potrace 1.14, written by Peter Selinger 2001-2017
</metadata>
<g transform="translate(0.000000,1600.000000) scale(0.100000,-0.100000)"
fill="#000000" stroke="none">
<path d="M3110 13996 c0 -2 64 -107 141 -233 78 -125 154 -248 169 -273 15
-25 111 -182 215 -350 103 -168 229 -372 280 -455 51 -82 121 -196 156 -253
35 -56 69 -110 74 -120 8 -14 97 -159 155 -252 6 -8 53 -85 105 -170 l95 -155
0 -3730 0 -3731 -55 -84 c-30 -47 -59 -92 -65 -100 -8 -12 -362 -552 -653
-1000 -34 -51 -112 -171 -174 -265 -61 -93 -149 -228 -196 -300 -47 -71 -142
-216 -211 -322 -69 -105 -126 -194 -126 -197 0 -3 1960 -6 4355 -6 l4354 0 30
44 c17 25 37 50 44 58 7 7 72 92 145 188 188 250 408 539 611 805 97 127 194
255 216 285 21 30 42 57 45 60 3 3 19 23 35 45 17 22 32 42 35 45 3 3 66 86
140 185 74 99 143 189 152 200 9 11 129 169 267 350 137 182 254 335 258 340
5 6 51 66 103 135 52 69 98 130 102 135 47 58 88 114 88 119 0 3 -1350 6
-3000 6 l-3000 0 0 4500 0 4500 -2445 0 c-1345 0 -2445 -2 -2445 -4z m3890
-5496 l0 -4500 2494 -2 2495 -3 -69 -90 c-37 -49 -138 -182 -224 -295 -86
-113 -225 -296 -308 -407 l-153 -202 -3183 -1 c-1861 0 -3182 4 -3180 9 3 8
181 282 494 761 l134 205 0 4020 0 4021 -76 124 c-42 69 -86 141 -99 160 -43
67 -425 691 -425 695 0 3 473 5 1050 5 l1050 0 0 -4500z"/>
<path d="M9000 12391 l0 -509 68 -17 c37 -9 74 -18 82 -20 80 -16 322 -95 468
-152 306 -119 584 -262 857 -441 72 -47 132 -88 135 -91 3 -3 21 -17 40 -31
19 -13 40 -28 45 -32 6 -5 39 -31 75 -59 207 -161 437 -377 586 -549 21 -25
44 -49 50 -55 16 -15 131 -158 201 -250 60 -80 243 -350 243 -359 0 -3 18 -35
41 -73 22 -37 45 -75 50 -83 53 -90 184 -370 259 -555 13 -30 65 -179 95 -270
51 -157 127 -481 150 -642 3 -18 7 -50 10 -70 3 -21 8 -60 11 -88 4 -27 8 -61
10 -75 25 -181 25 -801 0 -935 -2 -11 -7 -51 -12 -90 -4 -38 -8 -72 -9 -75 -1
-6 -17 -107 -20 -130 -1 -8 -5 -31 -9 -50 -4 -19 -8 -42 -10 -50 -14 -75 -22
-113 -52 -230 -18 -75 -53 -197 -77 -273 l-45 -137 523 0 524 0 14 53 c52 181
116 489 142 677 3 25 8 56 10 70 29 203 42 451 40 760 -2 173 -5 324 -8 335
-3 11 -8 62 -11 113 -4 51 -9 101 -11 112 -2 10 -6 46 -10 79 -3 33 -7 68 -9
78 -5 25 -15 90 -22 138 -3 22 -7 47 -9 55 -2 8 -7 31 -10 50 -11 65 -66 305
-91 400 -200 745 -561 1448 -1053 2050 -194 238 -464 516 -672 690 -29 25 -72
61 -94 80 -23 19 -75 60 -114 90 -40 30 -78 60 -84 65 -82 72 -440 303 -672
433 -78 44 -381 190 -470 227 -49 21 -103 43 -120 50 -102 44 -405 146 -560
189 -155 42 -430 106 -460 106 -13 0 -15 -62 -15 -509z"/>
<path d="M3394 10492 c-340 -527 -562 -1029 -715 -1608 -47 -179 -42 -160 -74
-322 -2 -13 -6 -31 -9 -40 -3 -9 -7 -35 -10 -57 -4 -22 -8 -51 -11 -65 -3 -14
-7 -38 -9 -55 -3 -16 -9 -61 -15 -100 -14 -93 -19 -133 -26 -240 -4 -49 -9
-97 -12 -105 -9 -25 -11 -627 -3 -740 11 -141 20 -250 25 -280 2 -14 9 -63 15
-110 6 -47 13 -97 16 -112 11 -70 16 -99 30 -178 9 -47 18 -96 21 -110 2 -14
9 -43 15 -65 5 -22 12 -51 15 -65 7 -40 52 -206 89 -330 155 -512 395 -1015
707 -1480 l57 -85 0 3153 c0 1733 -1 3152 -2 3152 -2 0 -49 -71 -104 -158z"/>
</g>
</svg>
